<svg id="Layer_1" style="enable-background:new 0 0 100 100;" version="1.1" viewBox="0 0 100 100" xml:space="preserve"
	xmlns="http://www.w3.org/2000/svg" xmlns:xlink="http://www.w3.org/1999/xlink">
	<g id="Symbols">
		<linearGradient gradientTransform="matrix(60 0 0 -60 -17169 44901)" gradientUnits="userSpaceOnUse"
			id="path-2_7_" x1="286.9831" x2="286.9831" y1="748.2662" y2="746.7667">
			<stop offset="0" style="stop-color:#19E6FF" />
			<stop offset="1" style="stop-color:#1E51EE" />
		</linearGradient>
		<path class="st1"
			d="M63.6,5c9,0,13.5,0,18.4,1.5c5.3,1.9,9.5,6.1,11.4,11.4C95,22.8,95,27.4,95,36.4v27.2   c0,9,0,13.5-1.5,18.4c-1.9,5.3-6.1,9.5-11.4,11.4C77.1,95,72.6,95,63.6,95H36.4c-9,0-13.5,0-18.4-1.5C12.6,91.5,8.5,87.4,6.5,82   C5,77.2,5,72.7,5,63.6V36.4c0-9,0-13.5,1.5-18.4C8.5,12.7,12.6,8.5,18,6.6C22.8,5,27.3,5,36.4,5H63.6z"
			id="path-2_1_" />
		<defs>
			<filter filterUnits="userSpaceOnUse" height="58.1" id="Adobe_OpacityMaskFilter" width="66.2" x="17"
				y="21.5">
				<feColorMatrix type="matrix" values="1 0 0 0 0  0 1 0 0 0  0 0 1 0 0  0 0 0 1 0" />
			</filter>
		</defs>
		<mask height="58.1" id="mask-3_1_" maskUnits="userSpaceOnUse" width="66.2" x="17" y="21.5">
			<g class="st2">
				<path class="st3"
					d="M63.6,5c9,0,13.5,0,18.4,1.5c5.3,1.9,9.5,6.1,11.4,11.4C95,22.8,95,27.4,95,36.4v27.2     c0,9,0,13.5-1.5,18.4c-1.9,5.3-6.1,9.5-11.4,11.4C77.1,95,72.6,95,63.6,95H36.4c-9,0-13.5,0-18.4-1.5C12.6,91.5,8.5,87.4,6.5,82     C5,77.2,5,72.7,5,63.6V36.4c0-9,0-13.5,1.5-18.4C8.5,12.7,12.6,8.5,18,6.6C22.8,5,27.3,5,36.4,5H63.6z"
					id="path-2_2_" />
			</g>
		</mask>
		<path class="st4"
			d="M25.3,68.3c0.1-0.2,0.3-0.3,0.5-0.4c0.8-0.2,1.6-0.4,2.4-0.4c2.2,0,4.2,0.8,5.8,2.2   c0.2,0.2,0.2,0.5,0.1,0.7l-4.1,7c-0.8,1.4-2.3,2.2-3.8,2.2c-0.9,0-1.8-0.3-2.6-0.9c-1.8-1.3-2.2-3.9-1.1-5.8L25.3,68.3z M78.6,57.6   c2.3,0,4.3,1.7,4.5,3.9c0.2,2.6-1.8,4.8-4.3,4.8h-5.3l3.9,6.7c1.1,1.9,0.7,4.5-1.1,5.8c-0.8,0.6-1.7,0.9-2.6,0.9   c-1.5,0-3-0.8-3.8-2.2l-9.4-16.3l-7.4-12.8c-0.1-0.1-0.1-0.2-0.1-0.4c0-0.5-0.1-1-0.1-1.5c0-3.5,0.8-7,2.4-9.8   c0.2-0.3,0.7-0.3,0.9,0l12.2,20.8H78.6z M55.6,57.8c2.2,1.3,3.6,3.8,3.6,6.6c0,0.6-0.1,1.1-0.2,1.7c0,0.1-0.2,0.2-0.3,0.2h-14H21.4   c-2.5,0-4.6-2.2-4.3-4.8c0.2-2.3,2.2-3.9,4.5-3.9h9.9l13.5-23.2l-3.7-6.3c-1.3-2.2-0.4-5.1,2-6.1c2.1-0.9,4.5,0,5.7,1.9l1.1,1.9   l1.2-2c1.3-2.2,4.2-2.9,6.3-1.4c1.9,1.3,2.3,3.9,1.1,5.9L41.5,57.6h7h6.4C55.2,57.6,55.4,57.7,55.6,57.8z"
			id="Icon" />
	</g>
</svg>